<svg xmlns="http://www.w3.org/2000/svg" width="256" height="256" viewBox="0 0 256 256" role="img" aria-label="Avatar Tharros — Caducée">
<title>Avatar Tharros — Caducée</title>
<defs>
<pattern id="gra33" patternUnits="userSpaceOnUse" width="3" height="3" patternTransform="rotate(45)"><rect width="3" height="3" fill="#171310"/><rect width="0.7" height="3" fill="#F6F1E9" opacity="0.16"/></pattern>
<filter id="rla33" x="-25%" y="-25%" width="150%" height="150%" color-interpolation-filters="sRGB">
<feMorphology in="SourceAlpha" operator="dilate" radius="1.6" result="d1"/>
<feMorphology in="SourceAlpha" operator="dilate" radius="2.8" result="d2"/>
<feComposite in="d2" in2="d1" operator="out" result="ring"/>
<feFlood flood-color="#C11F35" result="ac"/><feComposite in="ac" in2="ring" operator="in" result="outline"/>
<feOffset in="d1" dx="2" dy="2.6" result="sh"/><feFlood flood-color="#000" flood-opacity="0.32"/><feComposite in2="sh" operator="in" result="shadow"/>
<feMerge><feMergeNode in="shadow"/><feMergeNode in="outline"/><feMergeNode in="SourceGraphic"/></feMerge>
</filter>
<radialGradient id="vga33" cx="50%" cy="45%" r="60%"><stop offset="0.55" stop-color="#000" stop-opacity="0"/><stop offset="1" stop-color="#000" stop-opacity="0.28"/></radialGradient>
</defs>
<rect width="256" height="256" fill="#F6F1E9"/>

<line x1="168.0" y1="128.0" x2="232.0" y2="128.0" stroke="#C11F35" stroke-width="0.8" opacity="0.16"/><line x1="167.7" y1="133.2" x2="231.1" y2="141.6" stroke="#C11F35" stroke-width="0.8" opacity="0.16"/><line x1="166.6" y1="138.4" x2="228.5" y2="154.9" stroke="#C11F35" stroke-width="0.8" opacity="0.16"/><line x1="165.0" y1="143.3" x2="224.1" y2="167.8" stroke="#C11F35" stroke-width="0.8" opacity="0.16"/><line x1="162.6" y1="148.0" x2="218.1" y2="180.0" stroke="#C11F35" stroke-width="0.8" opacity="0.16"/><line x1="159.7" y1="152.4" x2="210.5" y2="191.3" stroke="#C11F35" stroke-width="0.8" opacity="0.16"/><line x1="156.3" y1="156.3" x2="201.5" y2="201.5" stroke="#C11F35" stroke-width="0.8" opacity="0.16"/><line x1="152.4" y1="159.7" x2="191.3" y2="210.5" stroke="#C11F35" stroke-width="0.8" opacity="0.16"/><line x1="148.0" y1="162.6" x2="180.0" y2="218.1" stroke="#C11F35" stroke-width="0.8" opacity="0.16"/><line x1="143.3" y1="165.0" x2="167.8" y2="224.1" stroke="#C11F35" stroke-width="0.8" opacity="0.16"/><line x1="138.4" y1="166.6" x2="154.9" y2="228.5" stroke="#C11F35" stroke-width="0.8" opacity="0.16"/><line x1="133.2" y1="167.7" x2="141.6" y2="231.1" stroke="#C11F35" stroke-width="0.8" opacity="0.16"/><line x1="128.0" y1="168.0" x2="128.0" y2="232.0" stroke="#C11F35" stroke-width="0.8" opacity="0.16"/><line x1="122.8" y1="167.7" x2="114.4" y2="231.1" stroke="#C11F35" stroke-width="0.8" opacity="0.16"/><line x1="117.6" y1="166.6" x2="101.1" y2="228.5" stroke="#C11F35" stroke-width="0.8" opacity="0.16"/><line x1="112.7" y1="165.0" x2="88.2" y2="224.1" stroke="#C11F35" stroke-width="0.8" opacity="0.16"/><line x1="108.0" y1="162.6" x2="76.0" y2="218.1" stroke="#C11F35" stroke-width="0.8" opacity="0.16"/><line x1="103.6" y1="159.7" x2="64.7" y2="210.5" stroke="#C11F35" stroke-width="0.8" opacity="0.16"/><line x1="99.7" y1="156.3" x2="54.5" y2="201.5" stroke="#C11F35" stroke-width="0.8" opacity="0.16"/><line x1="96.3" y1="152.4" x2="45.5" y2="191.3" stroke="#C11F35" stroke-width="0.8" opacity="0.16"/><line x1="93.4" y1="148.0" x2="37.9" y2="180.0" stroke="#C11F35" stroke-width="0.8" opacity="0.16"/><line x1="91.0" y1="143.3" x2="31.9" y2="167.8" stroke="#C11F35" stroke-width="0.8" opacity="0.16"/><line x1="89.4" y1="138.4" x2="27.5" y2="154.9" stroke="#C11F35" stroke-width="0.8" opacity="0.16"/><line x1="88.3" y1="133.2" x2="24.9" y2="141.6" stroke="#C11F35" stroke-width="0.8" opacity="0.16"/><line x1="88.0" y1="128.0" x2="24.0" y2="128.0" stroke="#C11F35" stroke-width="0.8" opacity="0.16"/><line x1="88.3" y1="122.8" x2="24.9" y2="114.4" stroke="#C11F35" stroke-width="0.8" opacity="0.16"/><line x1="89.4" y1="117.6" x2="27.5" y2="101.1" stroke="#C11F35" stroke-width="0.8" opacity="0.16"/><line x1="91.0" y1="112.7" x2="31.9" y2="88.2" stroke="#C11F35" stroke-width="0.8" opacity="0.16"/><line x1="93.4" y1="108.0" x2="37.9" y2="76.0" stroke="#C11F35" stroke-width="0.8" opacity="0.16"/><line x1="96.3" y1="103.6" x2="45.5" y2="64.7" stroke="#C11F35" stroke-width="0.8" opacity="0.16"/><line x1="99.7" y1="99.7" x2="54.5" y2="54.5" stroke="#C11F35" stroke-width="0.8" opacity="0.16"/><line x1="103.6" y1="96.3" x2="64.7" y2="45.5" stroke="#C11F35" stroke-width="0.8" opacity="0.16"/><line x1="108.0" y1="93.4" x2="76.0" y2="37.9" stroke="#C11F35" stroke-width="0.8" opacity="0.16"/><line x1="112.7" y1="91.0" x2="88.2" y2="31.9" stroke="#C11F35" stroke-width="0.8" opacity="0.16"/><line x1="117.6" y1="89.4" x2="101.1" y2="27.5" stroke="#C11F35" stroke-width="0.8" opacity="0.16"/><line x1="122.8" y1="88.3" x2="114.4" y2="24.9" stroke="#C11F35" stroke-width="0.8" opacity="0.16"/><line x1="128.0" y1="88.0" x2="128.0" y2="24.0" stroke="#C11F35" stroke-width="0.8" opacity="0.16"/><line x1="133.2" y1="88.3" x2="141.6" y2="24.9" stroke="#C11F35" stroke-width="0.8" opacity="0.16"/><line x1="138.4" y1="89.4" x2="154.9" y2="27.5" stroke="#C11F35" stroke-width="0.8" opacity="0.16"/><line x1="143.3" y1="91.0" x2="167.8" y2="31.9" stroke="#C11F35" stroke-width="0.8" opacity="0.16"/><line x1="148.0" y1="93.4" x2="180.0" y2="37.9" stroke="#C11F35" stroke-width="0.8" opacity="0.16"/><line x1="152.4" y1="96.3" x2="191.3" y2="45.5" stroke="#C11F35" stroke-width="0.8" opacity="0.16"/><line x1="156.3" y1="99.7" x2="201.5" y2="54.5" stroke="#C11F35" stroke-width="0.8" opacity="0.16"/><line x1="159.7" y1="103.6" x2="210.5" y2="64.7" stroke="#C11F35" stroke-width="0.8" opacity="0.16"/><line x1="162.6" y1="108.0" x2="218.1" y2="76.0" stroke="#C11F35" stroke-width="0.8" opacity="0.16"/><line x1="165.0" y1="112.7" x2="224.1" y2="88.2" stroke="#C11F35" stroke-width="0.8" opacity="0.16"/><line x1="166.6" y1="117.6" x2="228.5" y2="101.1" stroke="#C11F35" stroke-width="0.8" opacity="0.16"/><line x1="167.7" y1="122.8" x2="231.1" y2="114.4" stroke="#C11F35" stroke-width="0.8" opacity="0.16"/>
<rect width="256" height="256" fill="url(#vga33)"/>
<polygon points="40,20 236,20 236,216 216,236 20,236 20,40" fill="none" stroke="#C11F35" stroke-width="2.5"/>

<g filter="url(#rla33)">
<g transform="translate(48 48) scale(1.6)">
<line x1="50" y1="14" x2="50" y2="94" stroke="#C11F35" stroke-width="4" stroke-linecap="round"/><circle cx="50" cy="12" r="5" fill="#C11F35"/><polygon points="46,16 14,8 22,16 12,20 24,24 46,22" fill="url(#gra33)"/><polygon points="54,16 86,8 78,16 88,20 76,24 54,22" fill="url(#gra33)"/><path d="M50,84 C30,74 70,62 50,52 C30,42 70,32 50,24" fill="none" stroke="#171310" stroke-width="4" stroke-linecap="round" stroke-linejoin="round"/><path d="M50,84 C70,74 30,62 50,52 C70,42 30,32 50,24" fill="none" stroke="#171310" stroke-width="4" stroke-linecap="round" stroke-linejoin="round"/>
</g>
</g>
</svg>
