<svg xmlns="http://www.w3.org/2000/svg" width="256" height="256" viewBox="0 0 256 256" role="img" aria-label="Avatar Tharros — Branche d'olivier">
<title>Avatar Tharros — Branche d'olivier</title>
<defs>
<pattern id="gra39" patternUnits="userSpaceOnUse" width="3" height="3" patternTransform="rotate(45)"><rect width="3" height="3" fill="#171310"/><rect width="0.7" height="3" fill="#F6F1E9" opacity="0.16"/></pattern>
<filter id="rla39" x="-25%" y="-25%" width="150%" height="150%" color-interpolation-filters="sRGB">
<feMorphology in="SourceAlpha" operator="dilate" radius="1.6" result="d1"/>
<feMorphology in="SourceAlpha" operator="dilate" radius="2.8" result="d2"/>
<feComposite in="d2" in2="d1" operator="out" result="ring"/>
<feFlood flood-color="#C11F35" result="ac"/><feComposite in="ac" in2="ring" operator="in" result="outline"/>
<feOffset in="d1" dx="2" dy="2.6" result="sh"/><feFlood flood-color="#000" flood-opacity="0.32"/><feComposite in2="sh" operator="in" result="shadow"/>
<feMerge><feMergeNode in="shadow"/><feMergeNode in="outline"/><feMergeNode in="SourceGraphic"/></feMerge>
</filter>
<radialGradient id="vga39" cx="50%" cy="45%" r="60%"><stop offset="0.55" stop-color="#000" stop-opacity="0"/><stop offset="1" stop-color="#000" stop-opacity="0.28"/></radialGradient>
</defs>
<rect width="256" height="256" fill="#E8B96B"/>
<polygon points="0,256 256,0 256,256" fill="#171310" opacity="0.09"/>
<path d="M60,57 L61.2,60.8 L65,62 L61.2,63.2 L60,67 L58.8,63.2 L55,62 L58.8,60.8 Z" fill="#C11F35" opacity="0.35"/><path d="M196,53 L197.2,56.8 L201,58 L197.2,59.2 L196,63 L194.8,59.2 L191,58 L194.8,56.8 Z" fill="#C11F35" opacity="0.35"/><path d="M46,145 L47.2,148.8 L51,150 L47.2,151.2 L46,155 L44.8,151.2 L41,150 L44.8,148.8 Z" fill="#C11F35" opacity="0.35"/><path d="M210,155 L211.2,158.8 L215,160 L211.2,161.2 L210,165 L208.8,161.2 L205,160 L208.8,158.8 Z" fill="#C11F35" opacity="0.35"/><path d="M84,201 L85.2,204.8 L89,206 L85.2,207.2 L84,211 L82.8,207.2 L79,206 L82.8,204.8 Z" fill="#C11F35" opacity="0.35"/><path d="M176,205 L177.2,208.8 L181,210 L177.2,211.2 L176,215 L174.8,211.2 L171,210 L174.8,208.8 Z" fill="#C11F35" opacity="0.35"/><path d="M128,25 L129.2,28.8 L133,30 L129.2,31.2 L128,35 L126.8,31.2 L123,30 L126.8,28.8 Z" fill="#C11F35" opacity="0.35"/><path d="M30,95 L31.2,98.8 L35,100 L31.2,101.2 L30,105 L28.8,101.2 L25,100 L28.8,98.8 Z" fill="#C11F35" opacity="0.35"/><path d="M226,103 L227.2,106.8 L231,108 L227.2,109.2 L226,113 L224.8,109.2 L221,108 L224.8,106.8 Z" fill="#C11F35" opacity="0.35"/>
<rect width="256" height="256" fill="url(#vga39)"/>
<circle cx="128" cy="128" r="116" fill="none" stroke="#C11F35" stroke-width="3"/><circle cx="128" cy="128" r="106" fill="none" stroke="#C11F35" stroke-width="1.2"/>
<rect x="124.5" y="4.5" width="7" height="7" fill="#C11F35" transform="rotate(45 128.0 8.0)"/><rect x="244.5" y="124.5" width="7" height="7" fill="#C11F35" transform="rotate(45 248.0 128.0)"/><rect x="124.5" y="244.5" width="7" height="7" fill="#C11F35" transform="rotate(45 128.0 248.0)"/><rect x="4.5" y="124.5" width="7" height="7" fill="#C11F35" transform="rotate(45 8.0 128.0)"/>
<g filter="url(#rla39)">
<g transform="translate(48 48) scale(1.6)">
<path d="M18,86 C40,64 60,40 86,14" fill="none" stroke="#171310" stroke-width="3" stroke-linecap="round" stroke-linejoin="round"/><ellipse cx="30" cy="72" rx="10" ry="3.5" fill="url(#gra39)" transform="rotate(-60 30 72)"/><ellipse cx="40" cy="60" rx="10" ry="3.5" fill="url(#gra39)" transform="rotate(-30 40 60)"/><ellipse cx="50" cy="50" rx="10" ry="3.5" fill="url(#gra39)" transform="rotate(-70 50 50)"/><ellipse cx="60" cy="40" rx="10" ry="3.5" fill="url(#gra39)" transform="rotate(-25 60 40)"/><ellipse cx="70" cy="30" rx="10" ry="3.5" fill="url(#gra39)" transform="rotate(-75 70 30)"/><ellipse cx="78" cy="22" rx="10" ry="3.5" fill="url(#gra39)" transform="rotate(-30 78 22)"/><ellipse cx="36" cy="68" rx="10" ry="3.5" fill="url(#gra39)" transform="rotate(30 36 68)"/><ellipse cx="56" cy="46" rx="10" ry="3.5" fill="url(#gra39)" transform="rotate(40 56 46)"/><circle cx="46" cy="72" r="4" fill="#C11F35"/><circle cx="64" cy="52" r="4" fill="#C11F35"/><circle cx="74" cy="38" r="3.5" fill="#C11F35"/>
</g>
</g>
</svg>
