<svg xmlns="http://www.w3.org/2000/svg" width="256" height="256" viewBox="0 0 256 256" role="img" aria-label="Avatar Tharros — Vagues de Poséidon">
<title>Avatar Tharros — Vagues de Poséidon</title>
<defs>
<pattern id="gra46" patternUnits="userSpaceOnUse" width="3" height="3" patternTransform="rotate(45)"><rect width="3" height="3" fill="#8F1626"/><rect width="0.7" height="3" fill="#F6F1E9" opacity="0.16"/></pattern>
<filter id="rla46" x="-25%" y="-25%" width="150%" height="150%" color-interpolation-filters="sRGB">
<feMorphology in="SourceAlpha" operator="dilate" radius="1.6" result="d1"/>
<feMorphology in="SourceAlpha" operator="dilate" radius="2.8" result="d2"/>
<feComposite in="d2" in2="d1" operator="out" result="ring"/>
<feFlood flood-color="#B8672E" result="ac"/><feComposite in="ac" in2="ring" operator="in" result="outline"/>
<feOffset in="d1" dx="2" dy="2.6" result="sh"/><feFlood flood-color="#000" flood-opacity="0.32"/><feComposite in2="sh" operator="in" result="shadow"/>
<feMerge><feMergeNode in="shadow"/><feMergeNode in="outline"/><feMergeNode in="SourceGraphic"/></feMerge>
</filter>
<radialGradient id="vga46" cx="50%" cy="45%" r="60%"><stop offset="0.55" stop-color="#000" stop-opacity="0"/><stop offset="1" stop-color="#000" stop-opacity="0.28"/></radialGradient>
</defs>
<rect width="256" height="256" fill="#E4DCD1"/>
<circle cx="16" cy="16" r="2.5" fill="#8F1626" opacity="0.14"/><circle cx="48" cy="16" r="2.5" fill="#8F1626" opacity="0.14"/><circle cx="80" cy="16" r="2.5" fill="#8F1626" opacity="0.14"/><circle cx="112" cy="16" r="2.5" fill="#8F1626" opacity="0.14"/><circle cx="144" cy="16" r="2.5" fill="#8F1626" opacity="0.14"/><circle cx="176" cy="16" r="2.5" fill="#8F1626" opacity="0.14"/><circle cx="208" cy="16" r="2.5" fill="#8F1626" opacity="0.14"/><circle cx="240" cy="16" r="2.5" fill="#8F1626" opacity="0.14"/><circle cx="16" cy="48" r="2.5" fill="#8F1626" opacity="0.14"/><circle cx="48" cy="48" r="2.5" fill="#8F1626" opacity="0.14"/><circle cx="80" cy="48" r="2.5" fill="#8F1626" opacity="0.14"/><circle cx="112" cy="48" r="2.5" fill="#8F1626" opacity="0.14"/><circle cx="144" cy="48" r="2.5" fill="#8F1626" opacity="0.14"/><circle cx="176" cy="48" r="2.5" fill="#8F1626" opacity="0.14"/><circle cx="208" cy="48" r="2.5" fill="#8F1626" opacity="0.14"/><circle cx="240" cy="48" r="2.5" fill="#8F1626" opacity="0.14"/><circle cx="16" cy="80" r="2.5" fill="#8F1626" opacity="0.14"/><circle cx="48" cy="80" r="2.5" fill="#8F1626" opacity="0.14"/><circle cx="80" cy="80" r="2.5" fill="#8F1626" opacity="0.14"/><circle cx="112" cy="80" r="2.5" fill="#8F1626" opacity="0.14"/><circle cx="144" cy="80" r="2.5" fill="#8F1626" opacity="0.14"/><circle cx="176" cy="80" r="2.5" fill="#8F1626" opacity="0.14"/><circle cx="208" cy="80" r="2.5" fill="#8F1626" opacity="0.14"/><circle cx="240" cy="80" r="2.5" fill="#8F1626" opacity="0.14"/><circle cx="16" cy="112" r="2.5" fill="#8F1626" opacity="0.14"/><circle cx="48" cy="112" r="2.5" fill="#8F1626" opacity="0.14"/><circle cx="80" cy="112" r="2.5" fill="#8F1626" opacity="0.14"/><circle cx="112" cy="112" r="2.5" fill="#8F1626" opacity="0.14"/><circle cx="144" cy="112" r="2.5" fill="#8F1626" opacity="0.14"/><circle cx="176" cy="112" r="2.5" fill="#8F1626" opacity="0.14"/><circle cx="208" cy="112" r="2.5" fill="#8F1626" opacity="0.14"/><circle cx="240" cy="112" r="2.5" fill="#8F1626" opacity="0.14"/><circle cx="16" cy="144" r="2.5" fill="#8F1626" opacity="0.14"/><circle cx="48" cy="144" r="2.5" fill="#8F1626" opacity="0.14"/><circle cx="80" cy="144" r="2.5" fill="#8F1626" opacity="0.14"/><circle cx="112" cy="144" r="2.5" fill="#8F1626" opacity="0.14"/><circle cx="144" cy="144" r="2.5" fill="#8F1626" opacity="0.14"/><circle cx="176" cy="144" r="2.5" fill="#8F1626" opacity="0.14"/><circle cx="208" cy="144" r="2.5" fill="#8F1626" opacity="0.14"/><circle cx="240" cy="144" r="2.5" fill="#8F1626" opacity="0.14"/><circle cx="16" cy="176" r="2.5" fill="#8F1626" opacity="0.14"/><circle cx="48" cy="176" r="2.5" fill="#8F1626" opacity="0.14"/><circle cx="80" cy="176" r="2.5" fill="#8F1626" opacity="0.14"/><circle cx="112" cy="176" r="2.5" fill="#8F1626" opacity="0.14"/><circle cx="144" cy="176" r="2.5" fill="#8F1626" opacity="0.14"/><circle cx="176" cy="176" r="2.5" fill="#8F1626" opacity="0.14"/><circle cx="208" cy="176" r="2.5" fill="#8F1626" opacity="0.14"/><circle cx="240" cy="176" r="2.5" fill="#8F1626" opacity="0.14"/><circle cx="16" cy="208" r="2.5" fill="#8F1626" opacity="0.14"/><circle cx="48" cy="208" r="2.5" fill="#8F1626" opacity="0.14"/><circle cx="80" cy="208" r="2.5" fill="#8F1626" opacity="0.14"/><circle cx="112" cy="208" r="2.5" fill="#8F1626" opacity="0.14"/><circle cx="144" cy="208" r="2.5" fill="#8F1626" opacity="0.14"/><circle cx="176" cy="208" r="2.5" fill="#8F1626" opacity="0.14"/><circle cx="208" cy="208" r="2.5" fill="#8F1626" opacity="0.14"/><circle cx="240" cy="208" r="2.5" fill="#8F1626" opacity="0.14"/><circle cx="16" cy="240" r="2.5" fill="#8F1626" opacity="0.14"/><circle cx="48" cy="240" r="2.5" fill="#8F1626" opacity="0.14"/><circle cx="80" cy="240" r="2.5" fill="#8F1626" opacity="0.14"/><circle cx="112" cy="240" r="2.5" fill="#8F1626" opacity="0.14"/><circle cx="144" cy="240" r="2.5" fill="#8F1626" opacity="0.14"/><circle cx="176" cy="240" r="2.5" fill="#8F1626" opacity="0.14"/><circle cx="208" cy="240" r="2.5" fill="#8F1626" opacity="0.14"/><circle cx="240" cy="240" r="2.5" fill="#8F1626" opacity="0.14"/>
<path d="M60,57 L61.2,60.8 L65,62 L61.2,63.2 L60,67 L58.8,63.2 L55,62 L58.8,60.8 Z" fill="#B8672E" opacity="0.35"/><path d="M196,53 L197.2,56.8 L201,58 L197.2,59.2 L196,63 L194.8,59.2 L191,58 L194.8,56.8 Z" fill="#B8672E" opacity="0.35"/><path d="M46,145 L47.2,148.8 L51,150 L47.2,151.2 L46,155 L44.8,151.2 L41,150 L44.8,148.8 Z" fill="#B8672E" opacity="0.35"/><path d="M210,155 L211.2,158.8 L215,160 L211.2,161.2 L210,165 L208.8,161.2 L205,160 L208.8,158.8 Z" fill="#B8672E" opacity="0.35"/><path d="M84,201 L85.2,204.8 L89,206 L85.2,207.2 L84,211 L82.8,207.2 L79,206 L82.8,204.8 Z" fill="#B8672E" opacity="0.35"/><path d="M176,205 L177.2,208.8 L181,210 L177.2,211.2 L176,215 L174.8,211.2 L171,210 L174.8,208.8 Z" fill="#B8672E" opacity="0.35"/><path d="M128,25 L129.2,28.8 L133,30 L129.2,31.2 L128,35 L126.8,31.2 L123,30 L126.8,28.8 Z" fill="#B8672E" opacity="0.35"/><path d="M30,95 L31.2,98.8 L35,100 L31.2,101.2 L30,105 L28.8,101.2 L25,100 L28.8,98.8 Z" fill="#B8672E" opacity="0.35"/><path d="M226,103 L227.2,106.8 L231,108 L227.2,109.2 L226,113 L224.8,109.2 L221,108 L224.8,106.8 Z" fill="#B8672E" opacity="0.35"/>
<rect width="256" height="256" fill="url(#vga46)"/>
<polygon points="40,20 236,20 236,216 216,236 20,236 20,40" fill="none" stroke="#B8672E" stroke-width="2.5"/>

<g filter="url(#rla46)">
<g transform="translate(48 48) scale(1.6)">
<path d="M6,34 C14,22 26,22 30,34 C30,26 22,26 22,32 M30,34 C38,22 50,22 54,34 C54,26 46,26 46,32 M54,34 C62,22 74,22 78,34 C78,26 70,26 70,32 M78,34 C86,22 96,22 98,34" fill="none" stroke="#8F1626" stroke-width="4" stroke-linecap="round" stroke-linejoin="round"/><path d="M6,54 C14,42 26,42 30,54 C30,46 22,46 22,52 M30,54 C38,42 50,42 54,54 C54,46 46,46 46,52 M54,54 C62,42 74,42 78,54 C78,46 70,46 70,52 M78,54 C86,42 96,42 98,54" fill="none" stroke="#B8672E" stroke-width="4" stroke-linecap="round" stroke-linejoin="round"/><path d="M6,74 C14,62 26,62 30,74 C30,66 22,66 22,72 M30,74 C38,62 50,62 54,74 C54,66 46,66 46,72 M54,74 C62,62 74,62 78,74 C78,66 70,66 70,72 M78,74 C86,62 96,62 98,74" fill="none" stroke="#8F1626" stroke-width="4" stroke-linecap="round" stroke-linejoin="round"/>
</g>
</g>
</svg>
